<svg width="42" height="31" viewBox="0 0 42 31" fill="none" xmlns="http://www.w3.org/2000/svg">
<g clip-path="url(#clip0_155_195)">
<path d="M20.9779 30.9986C15.4792 30.9986 9.98223 30.9986 4.48349 30.9986C1.71913 30.9986 0.00617439 29.4414 0.00264617 26.9117C-0.000882056 21.2104 -0.000882056 15.5092 0.00264617 9.80635C0.00264617 7.46396 1.77558 5.81875 4.33002 5.79106C5.88773 5.77314 7.4472 5.79432 9.00491 5.78292C10.0563 5.77477 10.6226 5.39035 10.9701 4.46186C11.3741 3.38514 11.764 2.30354 12.1556 1.22356C12.452 0.39933 13.0641 0.000244141 14.0062 0.000244141C18.6811 0.0051309 23.356 0.00350198 28.0309 0.00187306C28.9341 0.00187306 29.5357 0.394443 29.8285 1.17958C30.1901 2.15531 30.543 3.13266 30.8976 4.11001C31.3968 5.48971 31.8396 5.7878 33.3885 5.78454C34.7698 5.78292 36.1528 5.7764 37.5341 5.78454C40.2615 5.80409 41.9956 7.40695 41.9991 9.922C42.0044 15.5972 42.0026 21.2707 41.9991 26.9459C41.9991 29.373 40.2597 30.9921 37.6506 30.9954C32.0936 31.0002 26.5367 30.9954 20.9797 30.9954L20.9779 30.9986ZM21.0009 27.1202C26.8189 27.1039 31.5644 22.7449 31.5203 17.4574C31.4762 12.0771 26.7854 7.72622 21.0397 7.73599C15.1599 7.74577 10.4338 12.1357 10.4762 17.5437C10.5185 22.8312 15.2499 27.1364 21.0009 27.1202ZM37.7917 11.0101C37.7776 10.2673 37.1284 9.67441 36.3345 9.67767C35.546 9.68092 34.8933 10.2853 34.8862 11.0215C34.8774 11.7887 35.576 12.4289 36.391 12.3996C37.176 12.3719 37.8076 11.7464 37.7935 11.0101H37.7917Z" fill="white" fill-opacity="0.51"/>
<path d="M21.0331 11.6257C24.512 11.6518 27.3151 14.2483 27.3045 17.4361C27.294 20.6825 24.4467 23.2921 20.9608 23.2513C17.4273 23.209 14.6523 20.606 14.6858 17.3677C14.7194 14.1815 17.5737 11.5997 21.0331 11.6274V11.6257Z" fill="white" fill-opacity="0.51"/>
</g>
<defs>
<clipPath id="clip0_155_195">
<rect width="42" height="31" fill="white"/>
</clipPath>
</defs>
</svg>
