<svg width="37" height="28" viewBox="0 0 37 28" fill="none" xmlns="http://www.w3.org/2000/svg">
<g clip-path="url(#clip0_155_191)">
<path d="M10.5989 24.3102C9.43634 24.2692 8.25984 24.3229 7.11294 24.1705C2.42094 23.5481 -0.728715 19.2827 0.14523 14.8166C0.797194 11.487 3.752 8.8484 7.27409 8.46221C7.53717 8.43378 7.68352 8.37534 7.73449 8.08629C8.54266 3.52466 12.706 0.107388 17.5608 0.0126174C19.2783 -0.0213421 20.9941 -0.0300294 22.6302 0.577293C26.1975 1.90092 28.4288 4.3389 29.2353 7.94729C29.2945 8.21107 29.311 8.41167 29.6941 8.46616C33.1989 8.96292 35.5725 10.8323 36.6306 14.0718C38.2206 18.9399 34.4806 24.0149 29.1737 24.2392C27.2318 24.3213 25.2833 24.2739 23.3381 24.2644C22.6113 24.2613 22.1032 23.7527 22.0991 23.0988C22.0941 22.4275 22.6129 21.9141 23.3561 21.9086C25.1369 21.8952 26.9185 21.9244 28.6993 21.8967C31.1164 21.8588 32.8873 20.7603 33.9643 18.7061C35.7821 15.2399 33.0879 10.9231 29.0512 10.7786C28.8045 10.7699 28.5579 10.7738 28.3112 10.7659C27.4743 10.7375 27.0073 10.3331 26.9637 9.5268C26.8692 7.74985 26.2312 6.18298 24.9996 4.8633C23.5485 3.30906 21.711 2.48218 19.5381 2.39452C18.0171 2.33292 16.4871 2.29343 15.0376 2.86285C12.1494 3.99615 10.4698 6.04951 10.0891 9.02847C9.89674 10.5322 9.72409 10.732 8.13652 10.7715C4.98276 10.8489 2.47273 13.3042 2.46945 16.3155C2.46616 19.3474 4.98358 21.8383 8.14474 21.8936C9.93867 21.9252 11.7342 21.8999 13.529 21.9046C14.2336 21.907 14.726 22.2442 14.8609 22.7994C15.0483 23.571 14.5016 24.2486 13.6416 24.266C12.6279 24.2858 11.6142 24.2708 10.6005 24.2708C10.6005 24.2842 10.5997 24.2976 10.5989 24.3118V24.3102Z" fill="white" fill-opacity="0.51"/>
<path d="M19.7306 18.5806C19.7306 18.7204 19.7306 18.8594 19.7306 18.9992C19.7306 21.5509 19.7273 24.1018 19.7331 26.6535C19.7339 27.1518 19.5728 27.5641 19.1222 27.8278C18.3724 28.2685 17.4146 27.8184 17.2823 26.9694C17.2584 26.8146 17.2642 26.6543 17.2642 26.4971C17.2633 23.9983 17.2642 21.4995 17.2642 19.0007C17.2642 18.861 17.2642 18.7212 17.2642 18.5814C17.2321 18.5648 17.2 18.5474 17.168 18.5308C16.8071 18.8752 16.4437 19.2179 16.086 19.5654C15.7646 19.8782 15.4004 20.1009 14.9235 20.0409C14.4417 19.98 14.0857 19.7455 13.9065 19.2898C13.7273 18.8357 13.8235 18.4321 14.149 18.0815C14.413 17.7972 14.7015 17.5334 14.9819 17.2641C15.8238 16.4546 16.6615 15.6411 17.5116 14.8403C18.1726 14.2172 18.8608 14.2196 19.5234 14.853C20.6013 15.882 21.6717 16.9182 22.7339 17.9622C23.2963 18.515 23.3251 19.2132 22.8351 19.6894C22.322 20.1885 21.5862 20.1822 21.0025 19.6444C20.6095 19.2827 20.2502 18.887 19.8753 18.5064C19.8268 18.5308 19.7783 18.5561 19.7298 18.5806H19.7306Z" fill="white" fill-opacity="0.51"/>
</g>
<defs>
<clipPath id="clip0_155_191">
<rect width="37" height="28" fill="white"/>
</clipPath>
</defs>
</svg>
