<svg width="50" height="53" viewBox="0 0 50 53" fill="none" xmlns="http://www.w3.org/2000/svg">
<path d="M42.5182 24.6317C42.5182 24.6815 42.5166 24.7314 42.5166 24.7812C42.515 24.8584 42.5133 24.9356 42.5101 25.0144C42.5069 25.0948 42.5021 25.172 42.4973 25.2428C42.4877 25.3505 42.4749 25.4486 42.4588 25.5371C42.422 25.7445 42.3691 25.9037 42.3146 26.0259C42.2985 26.0613 42.2809 26.0935 42.2649 26.1224C42.2488 26.1514 42.2312 26.1787 42.2152 26.2028C42.1751 26.2607 42.135 26.3041 42.1013 26.3379C42.0661 26.3717 42.034 26.3942 42.0116 26.4103C41.2805 26.9184 40.3026 26.5871 39.4962 26.4842C38.5294 26.3604 37.5467 26.362 36.58 26.4826C33.1588 26.912 29.6494 28.9511 28.6362 32.1673C28.633 32.1737 28.6314 32.1817 28.6298 32.1882C28.4454 32.7767 28.346 33.4055 28.346 34.0713V34.0922C28.3444 34.1436 28.3461 34.1999 28.3493 34.2578C28.3493 34.2755 28.3509 34.2932 28.3509 34.3109C28.3701 34.8335 28.5833 35.652 28.5513 36.3499C28.548 36.3982 28.5448 36.4464 28.54 36.4947C28.5352 36.5413 28.5288 36.5879 28.5208 36.6346C28.5144 36.6812 28.5048 36.7262 28.4935 36.7697C28.4935 36.7713 28.4919 36.7729 28.4919 36.7729C28.4839 36.8018 28.4759 36.8308 28.4679 36.8597C28.4599 36.8887 28.4503 36.916 28.439 36.9433C28.4198 36.9948 28.3974 37.0446 28.3717 37.0913C28.3477 37.1347 28.3204 37.1781 28.2899 37.2183C28.2723 37.2392 28.2563 37.2601 28.2402 37.2794C28.205 37.318 28.1681 37.3534 28.128 37.3872H28.1264C27.9244 37.5496 27.7032 37.6059 27.4419 37.6107C26.6643 37.622 25.8868 37.6396 25.1092 37.6605C24.3317 37.6396 23.5541 37.622 22.7766 37.6107C22.5153 37.6059 22.294 37.5496 22.092 37.3872C22.052 37.3534 22.0151 37.318 21.9798 37.2794C21.9462 37.2408 21.9157 37.199 21.8868 37.1572C21.8468 37.0913 21.8115 37.0237 21.7826 36.9498C21.7714 36.9192 21.7602 36.8887 21.7522 36.8565C21.7297 36.7857 21.7121 36.7134 21.6993 36.6394C21.6993 36.6346 21.6977 36.6314 21.6977 36.6281C21.6848 36.5493 21.6752 36.4673 21.672 36.3837C21.6303 35.6794 21.8516 34.8415 21.8708 34.3109C21.8724 34.2835 21.8724 34.2578 21.8724 34.2321C21.874 34.1967 21.874 34.1629 21.874 34.1291V34.0664C21.874 33.383 21.7682 32.7381 21.5742 32.1351C20.5482 28.9382 17.0516 26.9104 13.6401 26.4826C12.6734 26.362 11.6922 26.3604 10.7255 26.4842C9.9175 26.5871 8.93956 26.9184 8.20851 26.4103H8.20691C8.19889 26.4054 8.19087 26.399 8.18126 26.391C8.17484 26.3861 8.17003 26.3813 8.16362 26.3765C8.14438 26.3604 8.12354 26.3411 8.09949 26.3186C8.04018 26.2559 7.96964 26.1642 7.90551 26.0259C7.87344 25.9568 7.84298 25.8748 7.81573 25.7783C7.80932 25.759 7.80451 25.7397 7.7997 25.7188C7.79329 25.693 7.78687 25.6673 7.78046 25.64C7.76924 25.5853 7.75802 25.5258 7.7484 25.4631C7.74359 25.4325 7.74038 25.4004 7.73557 25.3666C7.72275 25.2605 7.71473 25.1431 7.70992 25.0144C7.70832 24.9356 7.70511 24.8584 7.70351 24.7812C7.7019 24.7314 7.7019 24.6815 7.7019 24.6317C7.70511 23.6717 7.83657 22.7084 8.03857 21.7693C8.78405 18.2797 10.6774 15.16 13.2954 12.7993C13.3788 12.7237 13.4637 12.6481 13.5503 12.5741C13.6385 12.497 13.7283 12.4214 13.818 12.3458C13.903 12.275 13.988 12.2059 14.0745 12.1367C14.1611 12.0676 14.2477 11.9984 14.3359 11.9309C14.5106 11.7958 14.6886 11.664 14.8681 11.5353C14.9499 11.4774 15.03 11.4195 15.1134 11.3648C15.1727 11.323 15.232 11.2828 15.2914 11.2426C15.3699 11.1896 15.4501 11.1381 15.5302 11.0866C15.6104 11.0352 15.6905 10.9837 15.7707 10.9339C15.8092 10.9098 15.8461 10.8856 15.8845 10.8631C15.9647 10.8133 16.0465 10.765 16.1282 10.7152C16.6877 10.3823 17.2681 10.08 17.8645 9.81303C17.9542 9.77122 18.0456 9.73101 18.1354 9.69242C18.1819 9.67151 18.23 9.65061 18.2765 9.63292C18.3663 9.59272 18.4576 9.55573 18.549 9.52035C18.6404 9.48176 18.7334 9.44638 18.8264 9.411C18.8568 9.39814 18.8857 9.38688 18.9145 9.37723C19.0139 9.34024 19.1149 9.30326 19.2159 9.26788C19.5141 9.16014 19.8155 9.06204 20.1201 8.9736C20.2388 8.93983 20.3558 8.90606 20.476 8.87389C20.5273 8.85781 20.5802 8.84495 20.6315 8.83208C20.7342 8.80475 20.8384 8.77902 20.9426 8.75329C20.9939 8.74042 21.0436 8.72917 21.0949 8.71791C21.1959 8.69379 21.2969 8.67127 21.3995 8.65037C21.5309 8.62142 21.664 8.59569 21.7971 8.56996C21.8099 8.56835 21.8211 8.56514 21.8339 8.56353C21.9782 8.53619 22.1241 8.51046 22.27 8.48795C22.3582 8.47348 22.4447 8.46061 22.5329 8.44775C22.5987 8.4381 22.6644 8.42845 22.7317 8.42202C22.7894 8.41398 22.8455 8.40594 22.9033 8.3995C22.9161 8.3979 22.9289 8.39629 22.9417 8.39468C23.0315 8.38342 23.1213 8.37377 23.2111 8.36573C23.2848 8.35769 23.3586 8.34965 23.4339 8.34483C23.5381 8.33357 23.6439 8.32553 23.7497 8.31749C23.9004 8.30623 24.0527 8.29659 24.2034 8.29015C24.3237 8.28372 24.4439 8.2789 24.5641 8.27568H24.5914L24.7357 8.27086C24.8607 8.26925 24.9842 8.26764 25.1092 8.26764C25.2343 8.26764 25.3577 8.26925 25.4828 8.27086C25.5309 8.27246 25.579 8.27407 25.6271 8.27568H25.6543C25.7745 8.2789 25.8948 8.28372 26.015 8.29015C26.1657 8.29659 26.318 8.30623 26.4687 8.31749C26.5745 8.32553 26.6803 8.33357 26.7846 8.34483C26.8599 8.34965 26.9336 8.35769 27.0074 8.36573C27.11 8.37538 27.2126 8.38664 27.3152 8.3995C27.3729 8.40594 27.429 8.41398 27.4867 8.42202C27.5541 8.42845 27.6198 8.4381 27.6855 8.44775C27.7737 8.46061 27.8603 8.47348 27.9485 8.48795C28.0911 8.51046 28.2322 8.53458 28.3733 8.56031C28.3845 8.56031 28.3958 8.56353 28.4054 8.56675C28.5577 8.59569 28.7084 8.62625 28.8591 8.65841C29.0098 8.69057 29.1589 8.72434 29.308 8.76133C29.441 8.79349 29.5741 8.82726 29.7072 8.86425C29.7568 8.87711 29.8065 8.88998 29.8562 8.90445C29.9556 8.93179 30.055 8.96073 30.1528 8.99129C30.1929 9.00254 30.233 9.0138 30.2731 9.02666C30.358 9.05079 30.4414 9.07812 30.5248 9.10546C30.6001 9.12958 30.6755 9.1537 30.7508 9.17943C30.831 9.20677 30.9111 9.23411 30.9897 9.26306C31.0362 9.27914 31.0811 9.29522 31.1276 9.31291C31.2077 9.34024 31.2879 9.3708 31.3664 9.40135C31.4386 9.42869 31.5123 9.45603 31.5845 9.48658C31.6342 9.50588 31.6839 9.52518 31.7336 9.54608C31.833 9.58628 31.9324 9.62809 32.0318 9.66991C32.0366 9.67151 32.0398 9.67312 32.0446 9.67634C32.1616 9.72619 32.2786 9.77765 32.3941 9.83072C32.431 9.8468 32.4678 9.86288 32.5047 9.88057C32.6041 9.9272 32.7035 9.97384 32.8029 10.0221C32.9295 10.0832 33.0546 10.1459 33.1796 10.2102C33.5211 10.3871 33.8578 10.5753 34.1864 10.7731C34.2169 10.7908 34.2474 10.8101 34.2778 10.8277C34.3259 10.8567 34.374 10.8872 34.4221 10.9162C34.5199 10.9757 34.6161 11.0368 34.7123 11.0995C34.7844 11.1445 34.8566 11.1928 34.9271 11.2426C34.9704 11.2716 35.0121 11.3005 35.0554 11.3295C35.1548 11.397 35.2525 11.4662 35.3503 11.5353C35.4401 11.5996 35.5299 11.6656 35.6197 11.7315C35.7014 11.7926 35.7848 11.8553 35.8666 11.918C35.9595 11.9888 36.0525 12.0612 36.1439 12.1367C36.2305 12.2059 36.3155 12.275 36.4004 12.3458C36.4902 12.4214 36.58 12.497 36.6682 12.5741C36.7227 12.6224 36.7772 12.669 36.8317 12.7173C36.8621 12.7446 36.8926 12.7719 36.9231 12.7993C39.5411 15.16 41.4344 18.2797 42.1799 21.7693C42.3819 22.7084 42.5133 23.6717 42.5166 24.6317H42.5182Z" fill="url(#paint0_linear_155_69)"/>
<path d="M42.0432 30.4543C42.032 30.5621 42.0127 30.665 41.9999 30.7567C41.923 31.26 41.8123 31.7682 41.6729 32.2779C41.3683 33.2669 41.0107 34.2495 40.5955 35.2095C39.8372 36.8691 38.8753 38.4563 37.8878 39.8167C35.8998 42.5569 33.2129 44.8034 29.9696 46.0127C28.4482 46.5788 26.8114 46.894 25.1729 46.9165C23.5345 46.894 21.8992 46.5788 20.3746 46.0127C17.1314 44.8034 14.4461 42.5569 12.4565 39.8167C11.4802 38.4723 10.5295 36.9061 9.77439 35.2674C9.77119 35.2626 9.76958 35.2577 9.76958 35.2545C9.34153 34.2688 8.9728 33.2589 8.66178 32.2426C8.66178 32.2377 8.66018 32.2345 8.65858 32.2313C8.52551 31.7376 8.4197 31.2439 8.34596 30.7567C8.33153 30.665 8.31229 30.5637 8.30107 30.4592C8.27061 30.2115 8.27221 29.9446 8.42932 29.7548C8.89585 29.1936 9.92349 29.3271 11.9772 29.5908C13.0962 29.7355 14.0052 29.8529 14.9078 30.1585C15.3342 30.3032 15.7575 30.4881 16.2015 30.7406C16.8316 31.0976 17.7743 31.6315 18.5005 32.5819C18.648 32.7748 18.7875 32.9839 18.9109 33.2139C19.48 34.2591 19.6788 35.4588 19.8792 36.6118C20.0187 37.4126 20.0347 38.6203 20.5574 39.2957C21.0175 39.8859 21.6876 40.2252 22.4251 40.4165C22.4315 40.4182 22.4363 40.4182 22.4411 40.4198C23.3132 40.6417 24.2752 40.6578 25.0944 40.6369C25.1184 40.6369 25.1441 40.6369 25.1697 40.6369C25.1954 40.6369 25.221 40.6369 25.2451 40.6369C26.0627 40.6578 27.0262 40.6417 27.8983 40.4198C27.9031 40.4182 27.908 40.4165 27.9144 40.4165C28.6502 40.2252 29.3204 39.8859 29.7805 39.2957C30.3031 38.6203 30.3191 37.4126 30.4586 36.6118C30.659 35.4588 30.8578 34.2591 31.4269 33.2139C31.552 32.9839 31.6899 32.7748 31.8373 32.5819C32.5636 31.6315 33.5063 31.0976 34.1363 30.7406C34.5804 30.4881 35.0052 30.3032 35.4317 30.1585C36.3327 29.8529 37.2433 29.7355 38.3607 29.5908C40.4176 29.3271 41.4452 29.1936 41.9085 29.7548C42.064 29.9446 42.0672 30.2083 42.0368 30.4543H42.0432Z" fill="url(#paint1_linear_155_69)"/>
<path d="M25.1711 52.0283C38.5205 52.0283 49.3423 40.6052 49.3423 26.5142C49.3423 12.4231 38.5205 1 25.1711 1C11.8218 1 1 12.4231 1 26.5142C1 40.6052 11.8218 52.0283 25.1711 52.0283Z" stroke="url(#paint2_linear_155_69)" stroke-miterlimit="10"/>
<defs>
<linearGradient id="paint0_linear_155_69" x1="-54.0237" y1="-27.7265" x2="87.3185" y2="60.8512" gradientUnits="userSpaceOnUse">
<stop offset="0.48" stop-color="#FFD500"/>
<stop offset="0.54" stop-color="#B3CE62"/>
<stop offset="0.6" stop-color="#7ACAAD"/>
<stop offset="0.63" stop-color="#57C7DB"/>
<stop offset="0.65" stop-color="#4AC6ED"/>
</linearGradient>
<linearGradient id="paint1_linear_155_69" x1="-36.7371" y1="10.9706" x2="54.5879" y2="46.8797" gradientUnits="userSpaceOnUse">
<stop offset="0.48" stop-color="#FFD500"/>
<stop offset="0.55" stop-color="#EABF2F"/>
<stop offset="0.66" stop-color="#C99D79"/>
<stop offset="0.75" stop-color="#B589A7"/>
<stop offset="0.79" stop-color="#AE81B9"/>
</linearGradient>
<linearGradient id="paint2_linear_155_69" x1="0.759523" y1="26.5142" x2="49.5828" y2="26.5142" gradientUnits="userSpaceOnUse">
<stop offset="0.48" stop-color="#FFD500"/>
<stop offset="0.57" stop-color="#B3CE62"/>
<stop offset="0.65" stop-color="#7ACAAD"/>
<stop offset="0.7" stop-color="#57C7DB"/>
<stop offset="0.73" stop-color="#4AC6ED"/>
<stop offset="0.77" stop-color="#4DC3EB"/>
<stop offset="0.8" stop-color="#56BDE6"/>
<stop offset="0.83" stop-color="#67B1DD"/>
<stop offset="0.86" stop-color="#7EA1D1"/>
<stop offset="0.88" stop-color="#9C8DC2"/>
<stop offset="0.9" stop-color="#AE81B9"/>
</linearGradient>
</defs>
</svg>
