<svg width="233" height="25" viewBox="0 0 233 25" fill="none" xmlns="http://www.w3.org/2000/svg">
<path d="M117.713 8.98864C117.534 10.0492 117.191 10.9657 116.684 11.7379C116.177 12.5069 115.557 13.1001 114.825 13.5178C114.092 13.9321 113.298 14.1392 112.443 14.1392C111.562 14.1392 110.811 13.9238 110.191 13.4929C109.575 13.0587 109.134 12.4455 108.869 11.6534C108.607 10.858 108.565 9.91667 108.744 8.82955C108.923 7.76894 109.266 6.85417 109.774 6.08523C110.281 5.31297 110.902 4.7197 111.638 4.3054C112.374 3.88778 113.172 3.67898 114.034 3.67898C114.909 3.67898 115.653 3.89607 116.266 4.33026C116.883 4.76113 117.322 5.37429 117.584 6.16974C117.849 6.96188 117.892 7.90151 117.713 8.98864ZM116.54 8.82955C116.686 7.96117 116.664 7.23035 116.475 6.63707C116.286 6.0438 115.973 5.5947 115.536 5.28977C115.098 4.98485 114.578 4.83239 113.975 4.83239C113.345 4.83239 112.748 4.99313 112.185 5.31463C111.621 5.63281 111.139 6.1018 110.738 6.72159C110.337 7.33807 110.064 8.09375 109.918 8.98864C109.772 9.85701 109.793 10.5878 109.982 11.1811C110.171 11.7744 110.484 12.2235 110.922 12.5284C111.359 12.8333 111.88 12.9858 112.483 12.9858C113.113 12.9858 113.709 12.8267 114.273 12.5085C114.836 12.187 115.319 11.718 115.72 11.1016C116.121 10.4818 116.394 9.72443 116.54 8.82955ZM118.951 14L120.641 3.81818H124.082C124.877 3.81818 125.507 3.95241 125.971 4.22088C126.438 4.48935 126.755 4.8589 126.921 5.32955C127.09 5.80019 127.124 6.33712 127.025 6.94034C126.926 7.53693 126.713 8.06723 126.389 8.53125C126.067 8.99527 125.63 9.35985 125.076 9.625C124.526 9.89015 123.856 10.0227 123.068 10.0227H120.283L120.482 8.90909H123.227C123.77 8.90909 124.221 8.82955 124.579 8.67045C124.937 8.51136 125.215 8.28433 125.414 7.98935C125.613 7.69437 125.746 7.3447 125.812 6.94034C125.878 6.52936 125.86 6.17306 125.757 5.87145C125.658 5.56652 125.454 5.3312 125.146 5.16548C124.841 4.99645 124.413 4.91193 123.863 4.91193H121.695L120.184 14H118.951ZM124.499 9.42614L126.249 14H124.818L123.107 9.42614H124.499Z" fill="white" fill-opacity="0.78"/>
<path d="M1 10L92 10" stroke="white" stroke-opacity="0.51" stroke-linecap="round"/>
<path d="M141 10L232 10" stroke="white" stroke-opacity="0.51" stroke-linecap="round"/>
</svg>
