<svg width="43" height="43" viewBox="0 0 43 43" fill="none" xmlns="http://www.w3.org/2000/svg">
<g clip-path="url(#clip0_155_21)">
<path d="M21.5236 4.52952e-06C33.3144 -0.00761877 42.9954 9.60841 43 21.3331C43.0046 33.3184 33.4561 43 21.6303 43.0015C9.51796 43.0015 0.00610022 33.4526 2.87363e-06 21.2858C-0.00609447 9.59927 9.69173 0.00762783 21.5236 4.52952e-06ZM36.6847 33.5181C41.8949 27.6604 43.3094 16.0379 35.4164 7.94501C27.5051 -0.166183 14.6489 0.0991078 7.05311 8.51371C-0.364313 16.7286 1.36581 28.0629 6.4327 33.6188C6.4891 33.4312 6.54245 33.2666 6.58818 33.1019C7.986 28.04 11.1002 24.5013 15.9674 22.5086C16.4141 22.3256 16.7829 22.3165 17.2524 22.5406C20.0831 23.893 22.9306 23.8655 25.7841 22.5589C26.1073 22.411 26.5814 22.3637 26.903 22.4842C30.3312 23.774 33.0217 25.9863 34.7945 29.1988C35.5582 30.5816 36.0719 32.1002 36.6832 33.5181H36.6847Z" fill="white"/>
<path d="M13.8289 13.7784C13.8411 9.54438 17.2708 6.13218 21.5054 6.13828C25.7477 6.14591 29.1805 9.57029 29.1729 13.7875C29.1652 18.087 25.7492 21.5191 21.4948 21.4992C17.2053 21.4794 13.8167 18.0657 13.8289 13.7768V13.7784Z" fill="white"/>
</g>
<defs>
<clipPath id="clip0_155_21">
<rect width="43" height="43" fill="white"/>
</clipPath>
</defs>
</svg>
